<svg width="74" height="19" viewBox="0 0 74 19" fill="none" xmlns="http://www.w3.org/2000/svg">
<path d="M1 15L5.5 5.5L10.5 15" stroke="white" stroke-width="2"/>
<path d="M67 15V4.38461H68.8462L72 15" stroke="white" stroke-width="1.84615"/>
<path d="M73 3.5V9.5" stroke="white" stroke-width="1.84615"/>
<path d="M12.4 15V3.432C12.448 3.432 12.5893 3.432 12.824 3.432C13.0587 3.432 13.336 3.432 13.656 3.432C13.9813 3.432 14.3093 3.43467 14.64 3.44C14.976 3.44 15.2667 3.44267 15.512 3.448C16.92 3.47467 18.064 3.71733 18.944 4.176C19.8293 4.62933 20.4773 5.27733 20.888 6.12C21.304 6.95733 21.512 7.968 21.512 9.152C21.512 10.3893 21.2907 11.4427 20.848 12.312C20.4107 13.1813 19.7387 13.848 18.832 14.312C17.9307 14.7707 16.784 15 15.392 15H12.4ZM14.376 13.392H15.424C16.2187 13.392 16.92 13.256 17.528 12.984C18.136 12.7067 18.6107 12.2587 18.952 11.64C19.2987 11.0213 19.472 10.1947 19.472 9.16C19.472 8.15733 19.312 7.35467 18.992 6.752C18.672 6.14933 18.2133 5.71467 17.616 5.448C17.0187 5.176 16.304 5.04 15.472 5.04H14.376V13.392ZM23.7281 15V3.432C23.7761 3.432 23.9175 3.432 24.1521 3.432C24.3868 3.432 24.6641 3.432 24.9841 3.432C25.3095 3.432 25.6375 3.43467 25.9681 3.44C26.3041 3.44 26.5948 3.44267 26.8401 3.448C28.2481 3.47467 29.3921 3.71733 30.2721 4.176C31.1575 4.62933 31.8055 5.27733 32.2161 6.12C32.6321 6.95733 32.8401 7.968 32.8401 9.152C32.8401 10.3893 32.6188 11.4427 32.1761 12.312C31.7388 13.1813 31.0668 13.848 30.1601 14.312C29.2588 14.7707 28.1121 15 26.7201 15H23.7281ZM25.7041 13.392H26.7521C27.5468 13.392 28.2481 13.256 28.8561 12.984C29.4641 12.7067 29.9388 12.2587 30.2801 11.64C30.6268 11.0213 30.8001 10.1947 30.8001 9.16C30.8001 8.15733 30.6401 7.35467 30.3201 6.752C30.0001 6.14933 29.5415 5.71467 28.9441 5.448C28.3468 5.176 27.6321 5.04 26.8001 5.04H25.7041V13.392ZM35.0563 15V3.432H37.0003V15H35.0563ZM42.3423 15V5.184H38.7423V3.432H47.7663V5.184H44.2943V15H42.3423ZM49.5094 15V3.432H51.4534V15H49.5094ZM58.8674 15.16C57.8007 15.16 56.878 14.9253 56.0994 14.456C55.326 13.9867 54.726 13.3093 54.2994 12.424C53.878 11.5387 53.6674 10.4773 53.6674 9.24C53.6674 7.992 53.8807 6.92267 54.3074 6.032C54.734 5.14133 55.3367 4.45867 56.1154 3.984C56.8994 3.50933 57.8167 3.272 58.8674 3.272C59.918 3.272 60.8274 3.50933 61.5954 3.984C62.3687 4.45867 62.966 5.14133 63.3874 6.032C63.8087 6.92267 64.0194 7.992 64.0194 9.24C64.0194 10.4773 63.8114 11.5387 63.3954 12.424C62.9794 13.304 62.3847 13.9813 61.6114 14.456C60.838 14.9253 59.9234 15.16 58.8674 15.16ZM58.8674 13.528C59.4967 13.528 60.038 13.3813 60.4914 13.088C60.9447 12.7893 61.2914 12.328 61.5314 11.704C61.7767 11.0747 61.8994 10.2613 61.8994 9.264C61.8994 8.25067 61.7767 7.424 61.5314 6.784C61.286 6.13867 60.9367 5.664 60.4834 5.36C60.03 5.056 59.4914 4.904 58.8674 4.904C58.238 4.904 57.694 5.05867 57.2354 5.368C56.782 5.672 56.43 6.14667 56.1794 6.792C55.9287 7.432 55.8034 8.256 55.8034 9.264C55.8034 10.2613 55.9287 11.0747 56.1794 11.704C56.43 12.328 56.782 12.7893 57.2354 13.088C57.694 13.3813 58.238 13.528 58.8674 13.528Z" fill="white"/>
</svg>
